<mxfile host="app.diagrams.net" modified="2021-11-05T13:31:56.590Z" agent="5.0 (Windows NT 10.0; Win64; x64) AppleWebKit/537.36 (KHTML, like Gecko) Chrome/95.0.4638.69 Safari/537.36" etag="RKVBnCFk4E5fxMVznfzf" version="15.5.4" type="github">
  <diagram id="ZmeL2juTr6FadtrqKS2K" name="Page-1">
    <mxGraphModel dx="1422" dy="762" grid="1" gridSize="10" guides="1" tooltips="1" connect="1" arrows="1" fold="1" page="1" pageScale="1" pageWidth="850" pageHeight="1100" math="0" shadow="0">
      <root>
        <mxCell id="0" />
        <mxCell id="1" parent="0" />
        <mxCell id="ykDc-9KU3Jw_aWop92b9-4" style="edgeStyle=none;rounded=0;orthogonalLoop=1;jettySize=auto;html=1;exitX=0.5;exitY=1;exitDx=0;exitDy=0;entryX=0.5;entryY=0;entryDx=0;entryDy=0;" parent="1" source="ykDc-9KU3Jw_aWop92b9-1" target="ykDc-9KU3Jw_aWop92b9-27" edge="1">
          <mxGeometry relative="1" as="geometry" />
        </mxCell>
        <mxCell id="ykDc-9KU3Jw_aWop92b9-5" style="edgeStyle=none;rounded=0;orthogonalLoop=1;jettySize=auto;html=1;exitX=0.5;exitY=1;exitDx=0;exitDy=0;" parent="1" source="ykDc-9KU3Jw_aWop92b9-27" target="ykDc-9KU3Jw_aWop92b9-2" edge="1">
          <mxGeometry relative="1" as="geometry" />
        </mxCell>
        <mxCell id="ykDc-9KU3Jw_aWop92b9-1" value="Start" style="rounded=0;whiteSpace=wrap;html=1;" parent="1" vertex="1">
          <mxGeometry x="20" y="20" width="120" height="60" as="geometry" />
        </mxCell>
        <mxCell id="ykDc-9KU3Jw_aWop92b9-2" value="Stop" style="rounded=0;whiteSpace=wrap;html=1;" parent="1" vertex="1">
          <mxGeometry x="20" y="610" width="120" height="60" as="geometry" />
        </mxCell>
        <mxCell id="ykDc-9KU3Jw_aWop92b9-8" style="edgeStyle=none;rounded=0;orthogonalLoop=1;jettySize=auto;html=1;exitX=0.333;exitY=0.983;exitDx=0;exitDy=0;exitPerimeter=0;" parent="1" source="ykDc-9KU3Jw_aWop92b9-37" target="ykDc-9KU3Jw_aWop92b9-6" edge="1">
          <mxGeometry relative="1" as="geometry">
            <mxPoint x="309.9159663865546" y="230" as="sourcePoint" />
          </mxGeometry>
        </mxCell>
        <mxCell id="ykDc-9KU3Jw_aWop92b9-9" style="edgeStyle=none;rounded=0;orthogonalLoop=1;jettySize=auto;html=1;" parent="1" source="ykDc-9KU3Jw_aWop92b9-37" target="ykDc-9KU3Jw_aWop92b9-7" edge="1">
          <mxGeometry relative="1" as="geometry">
            <mxPoint x="346.47058823529414" y="230" as="sourcePoint" />
          </mxGeometry>
        </mxCell>
        <mxCell id="ykDc-9KU3Jw_aWop92b9-35" style="edgeStyle=none;rounded=0;orthogonalLoop=1;jettySize=auto;html=1;exitX=0.25;exitY=1;exitDx=0;exitDy=0;entryX=1;entryY=0.75;entryDx=0;entryDy=0;" parent="1" source="ykDc-9KU3Jw_aWop92b9-3" target="ykDc-9KU3Jw_aWop92b9-27" edge="1">
          <mxGeometry relative="1" as="geometry" />
        </mxCell>
        <mxCell id="ykDc-9KU3Jw_aWop92b9-36" value="" style="edgeStyle=none;rounded=0;orthogonalLoop=1;jettySize=auto;html=1;" parent="1" source="ykDc-9KU3Jw_aWop92b9-3" target="ykDc-9KU3Jw_aWop92b9-31" edge="1">
          <mxGeometry relative="1" as="geometry" />
        </mxCell>
        <mxCell id="ykDc-9KU3Jw_aWop92b9-3" value="Login" style="rounded=0;whiteSpace=wrap;html=1;" parent="1" vertex="1">
          <mxGeometry x="250" y="40" width="120" height="60" as="geometry" />
        </mxCell>
        <mxCell id="ykDc-9KU3Jw_aWop92b9-19" style="edgeStyle=none;rounded=0;orthogonalLoop=1;jettySize=auto;html=1;exitX=0.5;exitY=1;exitDx=0;exitDy=0;" parent="1" source="ykDc-9KU3Jw_aWop92b9-6" target="ykDc-9KU3Jw_aWop92b9-18" edge="1">
          <mxGeometry relative="1" as="geometry" />
        </mxCell>
        <mxCell id="ykDc-9KU3Jw_aWop92b9-6" value="User" style="rounded=0;whiteSpace=wrap;html=1;" parent="1" vertex="1">
          <mxGeometry x="219" y="450" width="120" height="60" as="geometry" />
        </mxCell>
        <mxCell id="ykDc-9KU3Jw_aWop92b9-11" style="edgeStyle=none;rounded=0;orthogonalLoop=1;jettySize=auto;html=1;exitX=1;exitY=0.5;exitDx=0;exitDy=0;entryX=0;entryY=0.5;entryDx=0;entryDy=0;" parent="1" source="ykDc-9KU3Jw_aWop92b9-7" target="ykDc-9KU3Jw_aWop92b9-10" edge="1">
          <mxGeometry relative="1" as="geometry" />
        </mxCell>
        <mxCell id="ykDc-9KU3Jw_aWop92b9-20" style="edgeStyle=none;rounded=0;orthogonalLoop=1;jettySize=auto;html=1;exitX=0.25;exitY=1;exitDx=0;exitDy=0;" parent="1" source="ykDc-9KU3Jw_aWop92b9-7" target="ykDc-9KU3Jw_aWop92b9-18" edge="1">
          <mxGeometry relative="1" as="geometry" />
        </mxCell>
        <mxCell id="ykDc-9KU3Jw_aWop92b9-7" value="Admin" style="whiteSpace=wrap;html=1;" parent="1" vertex="1">
          <mxGeometry x="364" y="450" width="120" height="60" as="geometry" />
        </mxCell>
        <mxCell id="ykDc-9KU3Jw_aWop92b9-13" style="edgeStyle=none;rounded=0;orthogonalLoop=1;jettySize=auto;html=1;exitX=0.25;exitY=1;exitDx=0;exitDy=0;" parent="1" source="ykDc-9KU3Jw_aWop92b9-10" target="ykDc-9KU3Jw_aWop92b9-12" edge="1">
          <mxGeometry relative="1" as="geometry" />
        </mxCell>
        <mxCell id="ykDc-9KU3Jw_aWop92b9-15" style="edgeStyle=none;rounded=0;orthogonalLoop=1;jettySize=auto;html=1;exitX=0.75;exitY=1;exitDx=0;exitDy=0;" parent="1" source="ykDc-9KU3Jw_aWop92b9-10" target="ykDc-9KU3Jw_aWop92b9-14" edge="1">
          <mxGeometry relative="1" as="geometry" />
        </mxCell>
        <mxCell id="ykDc-9KU3Jw_aWop92b9-17" style="edgeStyle=none;rounded=0;orthogonalLoop=1;jettySize=auto;html=1;exitX=0.5;exitY=0;exitDx=0;exitDy=0;" parent="1" source="ykDc-9KU3Jw_aWop92b9-10" target="ykDc-9KU3Jw_aWop92b9-16" edge="1">
          <mxGeometry relative="1" as="geometry">
            <mxPoint x="610" y="279" as="targetPoint" />
          </mxGeometry>
        </mxCell>
        <mxCell id="ykDc-9KU3Jw_aWop92b9-10" value="AdminMeny" style="whiteSpace=wrap;html=1;" parent="1" vertex="1">
          <mxGeometry x="549" y="450" width="120" height="60" as="geometry" />
        </mxCell>
        <mxCell id="ykDc-9KU3Jw_aWop92b9-12" value="Skapa användare lokalt" style="whiteSpace=wrap;html=1;" parent="1" vertex="1">
          <mxGeometry x="489" y="560" width="120" height="60" as="geometry" />
        </mxCell>
        <mxCell id="ykDc-9KU3Jw_aWop92b9-14" value="Ta bort användare" style="whiteSpace=wrap;html=1;" parent="1" vertex="1">
          <mxGeometry x="629" y="560" width="120" height="60" as="geometry" />
        </mxCell>
        <mxCell id="ykDc-9KU3Jw_aWop92b9-16" value="Lista användare plus lösenord" style="rounded=0;whiteSpace=wrap;html=1;" parent="1" vertex="1">
          <mxGeometry x="550" y="189" width="120" height="60" as="geometry" />
        </mxCell>
        <mxCell id="ykDc-9KU3Jw_aWop92b9-24" style="edgeStyle=none;rounded=0;orthogonalLoop=1;jettySize=auto;html=1;exitX=0.25;exitY=1;exitDx=0;exitDy=0;" parent="1" source="ykDc-9KU3Jw_aWop92b9-18" target="ykDc-9KU3Jw_aWop92b9-21" edge="1">
          <mxGeometry relative="1" as="geometry" />
        </mxCell>
        <mxCell id="ykDc-9KU3Jw_aWop92b9-25" style="edgeStyle=none;rounded=0;orthogonalLoop=1;jettySize=auto;html=1;exitX=0.75;exitY=1;exitDx=0;exitDy=0;" parent="1" source="ykDc-9KU3Jw_aWop92b9-18" target="ykDc-9KU3Jw_aWop92b9-22" edge="1">
          <mxGeometry relative="1" as="geometry" />
        </mxCell>
        <mxCell id="ykDc-9KU3Jw_aWop92b9-26" style="edgeStyle=none;rounded=0;orthogonalLoop=1;jettySize=auto;html=1;exitX=1;exitY=1;exitDx=0;exitDy=0;entryX=0.5;entryY=0;entryDx=0;entryDy=0;" parent="1" source="ykDc-9KU3Jw_aWop92b9-18" target="ykDc-9KU3Jw_aWop92b9-23" edge="1">
          <mxGeometry relative="1" as="geometry" />
        </mxCell>
        <mxCell id="29jBiZmuyhF1VLToO7Ed-2" value="" style="edgeStyle=none;rounded=0;orthogonalLoop=1;jettySize=auto;html=1;" edge="1" parent="1" source="ykDc-9KU3Jw_aWop92b9-18" target="29jBiZmuyhF1VLToO7Ed-1">
          <mxGeometry relative="1" as="geometry" />
        </mxCell>
        <mxCell id="ykDc-9KU3Jw_aWop92b9-18" value="UserMeny" style="rounded=0;whiteSpace=wrap;html=1;" parent="1" vertex="1">
          <mxGeometry x="279" y="550" width="120" height="60" as="geometry" />
        </mxCell>
        <mxCell id="ykDc-9KU3Jw_aWop92b9-21" value="Se aktuell lön" style="rounded=0;whiteSpace=wrap;html=1;" parent="1" vertex="1">
          <mxGeometry x="209" y="650" width="120" height="60" as="geometry" />
        </mxCell>
        <mxCell id="ykDc-9KU3Jw_aWop92b9-22" value="Roll i företaget" style="whiteSpace=wrap;html=1;" parent="1" vertex="1">
          <mxGeometry x="339" y="650" width="120" height="60" as="geometry" />
        </mxCell>
        <mxCell id="ykDc-9KU3Jw_aWop92b9-23" value="Ta bort sitt konto&lt;br&gt;endast User, ej Admin" style="whiteSpace=wrap;html=1;" parent="1" vertex="1">
          <mxGeometry x="469" y="650" width="120" height="60" as="geometry" />
        </mxCell>
        <mxCell id="ykDc-9KU3Jw_aWop92b9-28" style="edgeStyle=none;rounded=0;orthogonalLoop=1;jettySize=auto;html=1;exitX=1;exitY=0.5;exitDx=0;exitDy=0;entryX=0;entryY=0.5;entryDx=0;entryDy=0;" parent="1" source="ykDc-9KU3Jw_aWop92b9-27" target="ykDc-9KU3Jw_aWop92b9-3" edge="1">
          <mxGeometry relative="1" as="geometry" />
        </mxCell>
        <mxCell id="ykDc-9KU3Jw_aWop92b9-27" value="Meny" style="rounded=0;whiteSpace=wrap;html=1;" parent="1" vertex="1">
          <mxGeometry x="20" y="190" width="120" height="60" as="geometry" />
        </mxCell>
        <mxCell id="ykDc-9KU3Jw_aWop92b9-33" value="" style="edgeStyle=none;rounded=0;orthogonalLoop=1;jettySize=auto;html=1;" parent="1" source="ykDc-9KU3Jw_aWop92b9-31" target="ykDc-9KU3Jw_aWop92b9-32" edge="1">
          <mxGeometry relative="1" as="geometry" />
        </mxCell>
        <mxCell id="ykDc-9KU3Jw_aWop92b9-38" value="" style="edgeStyle=none;rounded=0;orthogonalLoop=1;jettySize=auto;html=1;" parent="1" source="ykDc-9KU3Jw_aWop92b9-31" target="ykDc-9KU3Jw_aWop92b9-37" edge="1">
          <mxGeometry relative="1" as="geometry" />
        </mxCell>
        <mxCell id="ykDc-9KU3Jw_aWop92b9-31" value="&#xa;&#xa;&lt;span style=&quot;color: rgb(0, 0, 0); font-family: helvetica; font-size: 12px; font-style: normal; font-weight: 400; letter-spacing: normal; text-align: center; text-indent: 0px; text-transform: none; word-spacing: 0px; background-color: rgb(248, 249, 250); display: inline; float: none;&quot;&gt;Logga in med rätt användarnamn + lösenord&lt;/span&gt;&#xa;&#xa;" style="rhombus;whiteSpace=wrap;html=1;" parent="1" vertex="1">
          <mxGeometry x="260" y="120" width="140" height="150" as="geometry" />
        </mxCell>
        <mxCell id="ykDc-9KU3Jw_aWop92b9-34" style="edgeStyle=none;rounded=0;orthogonalLoop=1;jettySize=auto;html=1;exitX=0.5;exitY=0;exitDx=0;exitDy=0;entryX=1;entryY=0.5;entryDx=0;entryDy=0;" parent="1" source="ykDc-9KU3Jw_aWop92b9-32" target="ykDc-9KU3Jw_aWop92b9-3" edge="1">
          <mxGeometry relative="1" as="geometry" />
        </mxCell>
        <mxCell id="ykDc-9KU3Jw_aWop92b9-32" value="Misslyckad inloggning" style="rounded=1;whiteSpace=wrap;html=1;" parent="1" vertex="1">
          <mxGeometry x="400" y="100" width="130" height="60" as="geometry" />
        </mxCell>
        <mxCell id="ykDc-9KU3Jw_aWop92b9-37" value="Lyckad inloggning" style="rounded=1;whiteSpace=wrap;html=1;" parent="1" vertex="1">
          <mxGeometry x="279" y="300" width="120" height="60" as="geometry" />
        </mxCell>
        <mxCell id="29jBiZmuyhF1VLToO7Ed-3" value="" style="edgeStyle=none;rounded=0;orthogonalLoop=1;jettySize=auto;html=1;" edge="1" parent="1" source="29jBiZmuyhF1VLToO7Ed-1" target="ykDc-9KU3Jw_aWop92b9-27">
          <mxGeometry relative="1" as="geometry" />
        </mxCell>
        <mxCell id="29jBiZmuyhF1VLToO7Ed-1" value="Logga ut" style="rounded=0;whiteSpace=wrap;html=1;" vertex="1" parent="1">
          <mxGeometry x="120" y="530" width="120" height="60" as="geometry" />
        </mxCell>
      </root>
    </mxGraphModel>
  </diagram>
</mxfile>
